<svg width="179" height="56" viewBox="0 0 179 56" fill="none" xmlns="http://www.w3.org/2000/svg">
<path d="M34.5051 23.9376H19.4507C19.0624 23.9376 18.7471 24.3019 18.7471 24.7502V33.2471C18.7471 33.6953 19.0624 34.0601 19.4507 34.0601H25.3235V44.6166C25.3235 44.6166 24.0048 45.1356 20.359 45.1356C16.0579 45.1356 10.0493 43.3213 10.0493 28.0691C10.0493 12.8135 16.306 10.8063 22.1799 10.8063C27.2644 10.8063 29.4549 11.8398 30.8486 12.3376C31.2865 12.4927 31.6916 11.9893 31.6916 11.5405L33.3711 3.33095C33.3711 3.12123 33.3095 2.86845 33.1021 2.69663C32.5362 2.23068 29.083 0 20.359 0C10.309 0 0 4.93592 0 28.6638C0 52.3926 11.803 55.9285 21.749 55.9285C29.9842 55.9285 34.98 51.8659 34.98 51.8659C35.1859 51.7346 35.2083 51.4026 35.2083 51.2501V24.7502C35.2083 24.3019 34.8934 23.9376 34.5051 23.9376ZM112.048 2.97008C112.048 2.51791 111.738 2.15317 111.35 2.15317H102.873C102.486 2.15317 102.171 2.51791 102.171 2.97008C102.171 2.97223 102.173 21.8805 102.173 21.8805H88.9604V2.97008C88.9604 2.51791 88.6485 2.15317 88.2609 2.15317H79.7847C79.399 2.15317 79.0845 2.51791 79.0845 2.97008V54.1737C79.0845 54.6254 79.399 54.9932 79.7847 54.9932H88.2609C88.6485 54.9932 88.9604 54.6254 88.9604 54.1737V32.2721H102.173C102.173 32.2721 102.15 54.172 102.15 54.1737C102.15 54.6254 102.464 54.9932 102.852 54.9932H111.349C111.737 54.9932 112.047 54.6254 112.048 54.1737V2.97008ZM50.4735 9.81586C50.4735 6.29242 48.0263 3.44507 45.0073 3.44507C41.9913 3.44507 39.5423 6.29242 39.5423 9.81586C39.5423 13.3354 41.9913 16.1905 45.0073 16.1905C48.0263 16.1905 50.4735 13.3354 50.4735 9.81586ZM49.8009 43.3992V19.7635C49.8009 19.3148 49.4871 18.9479 49.0996 18.9479H40.6498C40.2622 18.9479 39.9153 19.4095 39.9153 19.8582V53.7211C39.9153 54.7163 40.4525 55.0121 41.1478 55.0121H48.7608C49.5961 55.0121 49.8009 54.5389 49.8009 53.7052V43.3992ZM144.445 18.9479H136.034C135.648 18.9479 135.334 19.3148 135.334 19.7665V44.8733C135.334 44.8733 133.197 46.6781 130.164 46.6781C127.131 46.6781 126.326 45.0895 126.326 41.6612V19.7665C126.326 19.3148 126.013 18.9479 125.627 18.9479H117.089C116.704 18.9479 116.389 19.3148 116.389 19.7665V43.3191C116.389 53.5019 121.305 55.9931 128.068 55.9931C133.616 55.9931 138.09 52.4546 138.09 52.4546C138.09 52.4546 138.303 54.3192 138.399 54.5406C138.496 54.7611 138.747 54.9837 139.018 54.9837L144.449 54.9561C144.834 54.9561 145.15 54.5884 145.15 54.1388L145.147 19.7665C145.147 19.3148 144.833 18.9479 144.445 18.9479ZM163.826 46.6975C160.908 46.595 158.929 45.0666 158.929 45.0666V28.8516C158.929 28.8516 160.882 27.4701 163.277 27.2229C166.306 26.9099 169.225 27.9662 169.225 36.3076C169.225 45.1037 167.908 46.8396 163.826 46.6975ZM167.144 17.848C162.366 17.848 159.117 20.3087 159.117 20.3087V2.97008C159.117 2.51791 158.804 2.15317 158.417 2.15317H149.917C149.53 2.15317 149.216 2.51791 149.216 2.97008V54.1737C149.216 54.6254 149.53 54.9932 149.918 54.9932H155.816C156.081 54.9932 156.282 54.8351 156.431 54.5582C156.577 54.2831 156.789 52.1975 156.789 52.1975C156.789 52.1975 160.265 56 166.845 56C174.57 56 179 51.4766 179 35.6935C179 19.9103 171.925 17.848 167.144 17.848ZM74.1973 18.86H67.8389C67.8389 18.86 67.8292 9.16517 67.8292 9.16302C67.8292 8.79612 67.6654 8.61267 67.298 8.61267H58.633C58.2961 8.61267 58.1152 8.78363 58.1152 9.15742V19.1783C58.1152 19.1783 53.773 20.3883 53.4794 20.4861C53.187 20.5838 52.9717 20.8952 52.9717 21.2664V27.5636C52.9717 28.0166 53.2851 28.3818 53.6727 28.3818H58.1152V43.5306C58.1152 54.7826 64.9523 55.888 69.566 55.888C71.6741 55.888 74.1958 55.1064 74.6122 54.929C74.864 54.8222 75.0102 54.5212 75.0102 54.1948L75.0173 47.2676C75.0173 46.8159 74.6868 46.4503 74.3145 46.4503C73.944 46.4503 72.9961 46.6242 72.0203 46.6242C68.8972 46.6242 67.8389 44.9478 67.8389 42.7778C67.8389 40.6096 67.8385 28.3818 67.8385 28.3818H74.1973C74.5849 28.3818 74.8986 28.0166 74.8986 27.5636V19.6761C74.8986 19.2243 74.5849 18.86 74.1973 18.86Z" fill="#C6C6C6"/>
</svg>
